<svg width="219" height="48" viewBox="0 0 219 48" fill="none" xmlns="http://www.w3.org/2000/svg">
<rect width="48" height="48" rx="8" fill="url(#paint0_linear_4443_11732)"/>
<path d="M24.04 36.48C22.3067 36.48 20.6 36.1733 18.92 35.56C17.24 34.92 15.7333 33.96 14.4 32.68L17.52 28.84C18.4533 29.64 19.5067 30.2667 20.68 30.72C21.88 31.1733 23.0533 31.4 24.2 31.4C25.4267 31.4 26.3333 31.1733 26.92 30.72C27.5333 30.2667 27.84 29.6533 27.84 28.88C27.84 28.32 27.68 27.88 27.36 27.56C27.0667 27.2133 26.64 26.9067 26.08 26.64C25.52 26.3733 24.8533 26.08 24.08 25.76L20.68 24.36C19.8 23.96 18.9467 23.4533 18.12 22.84C17.32 22.2 16.6667 21.4267 16.16 20.52C15.68 19.5867 15.44 18.48 15.44 17.2C15.44 15.76 15.8267 14.4667 16.6 13.32C17.4 12.1467 18.4933 11.2133 19.88 10.52C21.2933 9.8 22.9067 9.44 24.72 9.44C26.2933 9.44 27.8133 9.72 29.28 10.28C30.7467 10.84 32.0267 11.6533 33.12 12.72L30 16.52C29.1467 15.88 28.2667 15.3867 27.36 15.04C26.48 14.6933 25.6 14.52 24.72 14.52C23.7067 14.52 22.8933 14.7333 22.28 15.16C21.6933 15.56 21.4 16.1333 21.4 16.88C21.4 17.3867 21.5733 17.8267 21.92 18.2C22.2667 18.5467 22.7467 18.8533 23.36 19.12C23.9733 19.36 24.64 19.64 25.36 19.96L28.72 21.32C29.7867 21.7467 30.6933 22.28 31.44 22.92C32.2133 23.56 32.8133 24.3333 33.24 25.24C33.6667 26.12 33.88 27.1733 33.88 28.4C33.88 29.84 33.4933 31.1733 32.72 32.4C31.9467 33.6267 30.8267 34.6133 29.36 35.36C27.8933 36.1067 26.12 36.48 24.04 36.48Z" fill="white"/>
<path d="M75.8111 18.0156C75.6918 16.8991 75.1889 16.0298 74.3026 15.4077C73.4247 14.7855 72.2827 14.4744 70.8764 14.4744C69.8878 14.4744 69.0398 14.6236 68.3324 14.9219C67.625 15.2202 67.0838 15.625 66.7088 16.1364C66.3338 16.6477 66.142 17.2315 66.1335 17.8878C66.1335 18.4332 66.2571 18.9062 66.5043 19.3068C66.7599 19.7074 67.1051 20.0483 67.5398 20.3295C67.9744 20.6023 68.456 20.8324 68.9844 21.0199C69.5128 21.2074 70.0455 21.3651 70.5824 21.4929L73.0369 22.1065C74.0256 22.3366 74.9759 22.6477 75.8878 23.0398C76.8082 23.4318 77.6307 23.9261 78.3551 24.5227C79.0881 25.1193 79.6676 25.8395 80.0938 26.6832C80.5199 27.527 80.733 28.5156 80.733 29.6491C80.733 31.1832 80.3409 32.5341 79.5568 33.7017C78.7727 34.8608 77.6392 35.7685 76.1562 36.4247C74.6818 37.0724 72.8963 37.3963 70.7997 37.3963C68.7628 37.3963 66.9943 37.081 65.4943 36.4503C64.0028 35.8196 62.8352 34.8991 61.9915 33.6889C61.1563 32.4787 60.7045 31.0043 60.6364 29.2656H65.3026C65.3707 30.1776 65.652 30.9361 66.1463 31.5412C66.6406 32.1463 67.2841 32.598 68.0767 32.8963C68.8778 33.1946 69.7727 33.3438 70.7614 33.3438C71.7926 33.3438 72.696 33.1903 73.4716 32.8835C74.2557 32.5682 74.8693 32.1335 75.3125 31.5795C75.7557 31.017 75.9815 30.3608 75.9901 29.6108C75.9815 28.929 75.7813 28.3665 75.3892 27.9233C74.9972 27.4716 74.4474 27.0966 73.7401 26.7983C73.0412 26.4915 72.223 26.2187 71.2855 25.9801L68.3068 25.2131C66.1506 24.6591 64.446 23.8196 63.1932 22.6946C61.9489 21.5611 61.3267 20.0568 61.3267 18.1818C61.3267 16.6392 61.7443 15.2884 62.5795 14.1293C63.4233 12.9702 64.5696 12.071 66.0185 11.4318C67.4673 10.7841 69.108 10.4602 70.9403 10.4602C72.7983 10.4602 74.4261 10.7841 75.8239 11.4318C77.2301 12.071 78.3338 12.9616 79.1349 14.1037C79.9361 15.2372 80.3494 16.5412 80.375 18.0156H75.8111ZM89.3846 25.4943V37H84.7567V17.3636H89.18V20.7003H89.4102C89.8619 19.6009 90.582 18.7273 91.5707 18.0795C92.5678 17.4318 93.7994 17.108 95.2653 17.108C96.6204 17.108 97.8008 17.3977 98.8065 17.9773C99.8207 18.5568 100.605 19.3963 101.159 20.4957C101.721 21.5952 101.998 22.929 101.99 24.4972V37H97.3619V25.2131C97.3619 23.9006 97.021 22.8736 96.3391 22.1321C95.6658 21.3906 94.7326 21.0199 93.5394 21.0199C92.7298 21.0199 92.0096 21.1989 91.3789 21.5568C90.7567 21.9062 90.2667 22.4134 89.9087 23.0781C89.5593 23.7429 89.3846 24.5483 89.3846 25.4943ZM106.694 37V17.3636H111.322V37H106.694ZM109.021 14.5767C108.288 14.5767 107.657 14.3338 107.129 13.848C106.6 13.3537 106.336 12.7614 106.336 12.071C106.336 11.3722 106.6 10.7798 107.129 10.294C107.657 9.79971 108.288 9.55256 109.021 9.55256C109.762 9.55256 110.393 9.79971 110.913 10.294C111.441 10.7798 111.706 11.3722 111.706 12.071C111.706 12.7614 111.441 13.3537 110.913 13.848C110.393 14.3338 109.762 14.5767 109.021 14.5767ZM116.081 44.3636V17.3636H120.632V20.6108H120.901C121.139 20.1335 121.476 19.6264 121.911 19.0895C122.345 18.544 122.933 18.0795 123.675 17.696C124.416 17.304 125.362 17.108 126.513 17.108C128.03 17.108 129.398 17.4957 130.616 18.2713C131.844 19.0384 132.815 20.1761 133.531 21.6847C134.256 23.1847 134.618 25.0256 134.618 27.2074C134.618 29.3636 134.264 31.196 133.557 32.7045C132.849 34.2131 131.886 35.3636 130.668 36.1562C129.449 36.9489 128.068 37.3452 126.526 37.3452C125.401 37.3452 124.467 37.1577 123.726 36.7827C122.984 36.4077 122.388 35.956 121.936 35.4276C121.493 34.8906 121.148 34.3835 120.901 33.9062H120.709V44.3636H116.081ZM120.619 27.1818C120.619 28.4517 120.798 29.5639 121.156 30.5185C121.523 31.473 122.047 32.2187 122.729 32.7557C123.419 33.2841 124.254 33.5483 125.234 33.5483C126.257 33.5483 127.114 33.2756 127.804 32.7301C128.494 32.1761 129.014 31.4219 129.364 30.4673C129.722 29.5043 129.901 28.4091 129.901 27.1818C129.901 25.9631 129.726 24.8807 129.376 23.9347C129.027 22.9886 128.507 22.2472 127.817 21.7102C127.126 21.1733 126.266 20.9048 125.234 20.9048C124.246 20.9048 123.406 21.1648 122.716 21.6847C122.026 22.2045 121.501 22.9332 121.143 23.8707C120.794 24.8082 120.619 25.9119 120.619 27.1818ZM148.527 17.3636V20.9432H136.919V17.3636H148.527ZM139.821 37V15.5099C139.821 14.1889 140.094 13.0895 140.639 12.2116C141.193 11.3338 141.935 10.6776 142.864 10.2429C143.793 9.80824 144.824 9.59091 145.957 9.59091C146.759 9.59091 147.47 9.65483 148.092 9.78267C148.714 9.91051 149.175 10.0256 149.473 10.1278L148.553 13.7074C148.357 13.6477 148.109 13.5881 147.811 13.5284C147.513 13.4602 147.18 13.4261 146.814 13.4261C145.953 13.4261 145.344 13.6349 144.986 14.0526C144.636 14.4616 144.462 15.0497 144.462 15.8168V37H139.821ZM157.134 37.3963C155.89 37.3963 154.769 37.1747 153.772 36.7315C152.783 36.2798 151.999 35.6151 151.419 34.7372C150.848 33.8594 150.563 32.777 150.563 31.4901C150.563 30.3821 150.767 29.4659 151.176 28.7415C151.586 28.017 152.144 27.4375 152.851 27.0028C153.559 26.5682 154.355 26.2401 155.242 26.0185C156.137 25.7884 157.061 25.6222 158.016 25.5199C159.167 25.4006 160.1 25.294 160.816 25.2003C161.532 25.098 162.051 24.9446 162.375 24.7401C162.708 24.527 162.874 24.1989 162.874 23.7557V23.679C162.874 22.7159 162.588 21.9702 162.017 21.4418C161.446 20.9134 160.624 20.6491 159.55 20.6491C158.417 20.6491 157.517 20.8963 156.853 21.3906C156.196 21.8849 155.753 22.4687 155.523 23.142L151.202 22.5284C151.543 21.3352 152.105 20.3381 152.89 19.5369C153.674 18.7273 154.632 18.1222 155.766 17.7216C156.9 17.3125 158.152 17.108 159.525 17.108C160.471 17.108 161.412 17.2188 162.35 17.4403C163.287 17.6619 164.144 18.0284 164.919 18.5398C165.695 19.0426 166.317 19.7287 166.786 20.598C167.263 21.4673 167.502 22.554 167.502 23.858V37H163.053V34.3026H162.9C162.618 34.848 162.222 35.3594 161.711 35.8366C161.208 36.3054 160.573 36.6847 159.806 36.9744C159.047 37.2557 158.157 37.3963 157.134 37.3963ZM158.336 33.9957C159.265 33.9957 160.07 33.8125 160.752 33.446C161.434 33.071 161.958 32.5767 162.324 31.9631C162.699 31.3494 162.887 30.6804 162.887 29.956V27.642C162.742 27.7614 162.495 27.8722 162.145 27.9744C161.804 28.0767 161.421 28.1662 160.995 28.2429C160.569 28.3196 160.147 28.3878 159.729 28.4474C159.311 28.5071 158.949 28.5582 158.642 28.6009C157.952 28.6946 157.334 28.848 156.789 29.0611C156.243 29.2741 155.813 29.5724 155.498 29.956C155.182 30.331 155.025 30.8168 155.025 31.4134C155.025 32.2656 155.336 32.9091 155.958 33.3438C156.58 33.7784 157.373 33.9957 158.336 33.9957ZM172.155 37V17.3636H176.783V37H172.155ZM174.482 14.5767C173.749 14.5767 173.118 14.3338 172.59 13.848C172.061 13.3537 171.797 12.7614 171.797 12.071C171.797 11.3722 172.061 10.7798 172.59 10.294C173.118 9.79971 173.749 9.55256 174.482 9.55256C175.223 9.55256 175.854 9.79971 176.374 10.294C176.902 10.7798 177.167 11.3722 177.167 12.071C177.167 12.7614 176.902 13.3537 176.374 13.848C175.854 14.3338 175.223 14.5767 174.482 14.5767ZM181.542 37V17.3636H186.029V20.6364H186.234C186.592 19.5028 187.205 18.6293 188.075 18.0156C188.952 17.3935 189.954 17.0824 191.079 17.0824C191.335 17.0824 191.62 17.0952 191.935 17.1207C192.259 17.1378 192.528 17.1676 192.741 17.2102V21.4673C192.545 21.3991 192.234 21.3395 191.808 21.2884C191.39 21.2287 190.985 21.1989 190.593 21.1989C189.749 21.1989 188.991 21.3821 188.317 21.7486C187.653 22.1065 187.129 22.6051 186.745 23.2443C186.362 23.8835 186.17 24.6207 186.17 25.456V37H181.542Z" fill="url(#paint1_linear_4443_11732)"/>
<defs>
<linearGradient id="paint0_linear_4443_11732" x1="0" y1="24" x2="48" y2="24" gradientUnits="userSpaceOnUse">
<stop stop-color="#9333EA"/>
<stop offset="1" stop-color="#DB2777"/>
</linearGradient>
<linearGradient id="paint1_linear_4443_11732" x1="59" y1="24" x2="219" y2="24" gradientUnits="userSpaceOnUse">
<stop stop-color="#9333EA"/>
<stop offset="1" stop-color="#DB2777"/>
</linearGradient>
</defs>
</svg>
