<svg width="48" height="48" viewBox="0 0 48 48" fill="none" xmlns="http://www.w3.org/2000/svg">
<rect width="48" height="48" rx="8" fill="url(#paint0_linear_4443_11733)"/>
<path d="M24.04 36.48C22.3067 36.48 20.6 36.1733 18.92 35.56C17.24 34.92 15.7333 33.96 14.4 32.68L17.52 28.84C18.4533 29.64 19.5067 30.2667 20.68 30.72C21.88 31.1733 23.0533 31.4 24.2 31.4C25.4267 31.4 26.3333 31.1733 26.92 30.72C27.5333 30.2667 27.84 29.6533 27.84 28.88C27.84 28.32 27.68 27.88 27.36 27.56C27.0667 27.2133 26.64 26.9067 26.08 26.64C25.52 26.3733 24.8533 26.08 24.08 25.76L20.68 24.36C19.8 23.96 18.9467 23.4533 18.12 22.84C17.32 22.2 16.6667 21.4267 16.16 20.52C15.68 19.5867 15.44 18.48 15.44 17.2C15.44 15.76 15.8267 14.4667 16.6 13.32C17.4 12.1467 18.4933 11.2133 19.88 10.52C21.2933 9.8 22.9067 9.44 24.72 9.44C26.2933 9.44 27.8133 9.72 29.28 10.28C30.7467 10.84 32.0267 11.6533 33.12 12.72L30 16.52C29.1467 15.88 28.2667 15.3867 27.36 15.04C26.48 14.6933 25.6 14.52 24.72 14.52C23.7067 14.52 22.8933 14.7333 22.28 15.16C21.6933 15.56 21.4 16.1333 21.4 16.88C21.4 17.3867 21.5733 17.8267 21.92 18.2C22.2667 18.5467 22.7467 18.8533 23.36 19.12C23.9733 19.36 24.64 19.64 25.36 19.96L28.72 21.32C29.7867 21.7467 30.6933 22.28 31.44 22.92C32.2133 23.56 32.8133 24.3333 33.24 25.24C33.6667 26.12 33.88 27.1733 33.88 28.4C33.88 29.84 33.4933 31.1733 32.72 32.4C31.9467 33.6267 30.8267 34.6133 29.36 35.36C27.8933 36.1067 26.12 36.48 24.04 36.48Z" fill="white"/>
<defs>
<linearGradient id="paint0_linear_4443_11733" x1="0" y1="24" x2="48" y2="24" gradientUnits="userSpaceOnUse">
<stop stop-color="#9333EA"/>
<stop offset="1" stop-color="#DB2777"/>
</linearGradient>
</defs>
</svg>
